HIERARCHY
ROOT Hips
{
	OFFSET 0.000000 0.000000 0.000000
	CHANNELS 6 Xposition Yposition Zposition Zrotation Yrotation Xrotation 
	JOINT LowerBack
	{
		OFFSET 0.000000 0.000000 0.000000
		CHANNELS 3 Zrotation Yrotation Xrotation
		JOINT Spine
		{
			OFFSET 0.028270 2.035590 -0.193380
			CHANNELS 3 Zrotation Yrotation Xrotation
			JOINT Spine1
			{
				OFFSET 0.056720 2.048850 -0.042750
				CHANNELS 3 Zrotation Yrotation Xrotation
				JOINT Neck
				{
					OFFSET 0.000000 0.000000 0.000000
					CHANNELS 3 Zrotation Yrotation Xrotation
					JOINT Neck1
					{
						OFFSET -0.054170 1.746240 0.172020
						CHANNELS 3 Zrotation Yrotation Xrotation
						JOINT Head
						{
							OFFSET 0.104070 1.761360 -0.123970
							CHANNELS 3 Zrotation Yrotation Xrotation
							End Site
							{
								OFFSET 0.000000 0.000000 0.000000
							}
						}
					}
				}
				JOINT LeftShoulder
				{
					OFFSET 0.000000 0.000000 0.000000
					CHANNELS 3 Zrotation Yrotation Xrotation
					JOINT LeftArm
					{
						OFFSET 3.362410 1.200890 -0.311210
						CHANNELS 3 Zrotation Yrotation Xrotation
						JOINT LeftForeArm
						{
							OFFSET 4.983000 -0.000000 -0.000000
							CHANNELS 3 Zrotation Yrotation Xrotation
							JOINT LeftHand
							{
								OFFSET 3.483560 -0.000000 -0.000000
								CHANNELS 3 Zrotation Yrotation Xrotation
								JOINT LeftFingerBase
								{
									OFFSET 0.000000 0.000000 0.000000
									CHANNELS 3 Zrotation Yrotation Xrotation
									JOINT LeftHandIndex1
									{
										OFFSET 0.715260 -0.000000 -0.000000
										CHANNELS 3 Zrotation Yrotation Xrotation
										End Site
										{
											OFFSET 0.000000 0.000000 0.000000
										}
									}
								}
								JOINT LThumb
								{
									OFFSET 0.000000 0.000000 0.000000
									CHANNELS 3 Zrotation Yrotation Xrotation
									End Site
									{
										OFFSET 0.000000 0.000000 0.000000
									}
								}
							}
						}
					}
				}
				JOINT RightShoulder
				{
					OFFSET 0.000000 0.000000 0.000000
					CHANNELS 3 Zrotation Yrotation Xrotation
					JOINT RightArm
					{
						OFFSET -3.136600 1.374050 -0.404650
						CHANNELS 3 Zrotation Yrotation Xrotation
						JOINT RightForeArm
						{
							OFFSET -5.241900 -0.000000 -0.000000
							CHANNELS 3 Zrotation Yrotation Xrotation
							JOINT RightHand
							{
								OFFSET -3.444170 -0.000000 -0.000000
								CHANNELS 3 Zrotation Yrotation Xrotation
								JOINT RightFingerBase
								{
									OFFSET 0.000000 0.000000 0.000000
									CHANNELS 3 Zrotation Yrotation Xrotation
									JOINT RightHandIndex1
									{
										OFFSET -0.622530 -0.000000 -0.000000
										CHANNELS 3 Zrotation Yrotation Xrotation
										End Site
										{
											OFFSET 0.000000 0.000000 0.000000
										}
									}
								}
								JOINT RThumb
								{
									OFFSET 0.000000 0.000000 0.000000
									CHANNELS 3 Zrotation Yrotation Xrotation
									End Site
									{
										OFFSET 0.000000 0.000000 0.000000
									}
								}
							}
						}
					}
				}
			}
		}
	}
}
}
MOTION
Frames: 16
Frame Time: 0.008333
4.354734 17.187833 -0.141039 -174.669868 -76.387594 -173.303058 2.450527 -0.697814 -7.504621 -0.424038 -1.125508 -4.709519 -7.388153 -0.914544 -3.413077 8.159263 -2.034227 3.899145 -4.227158 -0.424011 3.165940 0.000000 0.000000 0.000000 9.625435 3.686275 -3.328963 -76.765200 -44.033751 11.978799 -179.259975 -59.858627 179.901451 5.652605 -5.344138 -0.321377 -0.069914 1.159790 -0.000000 0.000000 0.000000 0.000000 0.000000 0.000000 0.000000 6.923605 -0.675937 -5.086395 81.706079 41.998570 15.040115 -177.801236 62.430488 179.774364 -12.936985 15.968430 -1.963483 0.048828 -1.126608 -0.000000 0.000000 0.000000 0.000000 0.000000 0.000000 0.000000 
4.356563 17.183855 -0.175690 -174.970827 -75.900417 -173.135783 2.464777 -0.711639 -7.492467 -0.409909 -1.137312 -4.687406 -7.325843 -0.922116 -3.327994 8.036384 -2.218179 3.709493 -4.246568 -0.423499 3.113663 0.000000 0.000000 0.000000 9.658197 3.828367 -3.244881 -76.277178 -43.260802 11.346229 -179.219344 -59.707596 179.902318 5.659009 -5.301503 -0.319645 -0.075396 1.154853 -0.000000 0.000000 0.000000 0.000000 0.000000 0.000000 0.000000 6.904724 -0.770011 -5.081057 81.862647 41.860242 15.556022 -177.891680 63.164361 179.776715 -12.923994 15.969724 -1.961018 0.050495 -1.119463 -0.000000 0.000000 0.000000 0.000000 0.000000 0.000000 0.000000 
4.358764 17.179595 -0.210700 -175.249700 -75.414593 -173.004922 2.489718 -0.727474 -7.468928 -0.392176 -1.151419 -4.664381 -7.255973 -0.932405 -3.246820 7.899251 -2.402517 3.513073 -4.265958 -0.422953 3.059610 0.000000 0.000000 0.000000 9.684324 3.963667 -3.155298 -75.788427 -42.394714 10.688327 -179.176695 -59.564633 179.903495 5.653494 -5.243690 -0.316309 -0.080628 1.148691 -0.000000 0.000000 0.000000 0.000000 0.000000 0.000000 0.000000 6.877157 -0.853203 -5.070298 82.036687 41.677050 16.088974 -177.993034 63.983132 179.780269 -12.820625 15.958731 -1.942756 0.049763 -1.111098 -0.000000 0.000000 0.000000 0.000000 0.000000 0.000000 0.000000 
4.361424 17.174951 -0.245867 -175.482157 -74.925374 -172.936207 2.532148 -0.743516 -7.428992 -0.369849 -1.166616 -4.639879 -7.179299 -0.944242 -3.170450 7.748538 -2.587001 3.309903 -4.285304 -0.422362 3.003771 0.000000 0.000000 0.000000 9.698557 4.090698 -3.059555 -75.296916 -41.437303 10.006316 -179.132383 -59.439146 179.905024 5.634000 -5.166485 -0.311269 -0.085473 1.141015 -0.000000 0.000000 0.000000 0.000000 0.000000 0.000000 0.000000 6.843525 -0.923684 -5.052895 82.223798 41.449560 16.635478 -178.104912 64.889737 179.785027 -12.627278 15.934571 -1.908897 0.046730 -1.101401 -0.000000 0.000000 0.000000 0.000000 0.000000 0.000000 0.000000 
4.364502 17.169986 -0.281554 -175.719022 -74.434413 -172.869491 2.576815 -0.761305 -7.384004 -0.345721 -1.183453 -4.616090 -7.096574 -0.958565 -3.099579 7.588659 -2.770709 3.100250 -4.304457 -0.421734 2.946265 0.000000 0.000000 0.000000 9.706838 4.203892 -2.959092 -74.804886 -40.379382 9.300665 -179.088980 -59.334508 179.906929 5.597548 -5.071392 -0.304230 -0.089611 1.131720 -0.000000 0.000000 0.000000 0.000000 0.000000 0.000000 0.000000 6.807279 -0.981480 -5.027924 82.426373 41.169791 17.190836 -178.225852 65.878419 179.790827 -12.355929 15.906990 -1.862639 0.041871 -1.090651 -0.000000 0.000000 0.000000 0.000000 0.000000 0.000000 0.000000 
4.368380 17.164618 -0.317415 -175.889444 -73.933778 -172.882980 2.642734 -0.777807 -7.319372 -0.316875 -1.200366 -4.590169 -7.009617 -0.973507 -3.032571 7.421566 -2.957771 2.880456 -4.323694 -0.421020 2.886011 0.000000 0.000000 0.000000 9.698456 4.312162 -2.852711 -74.308964 -39.236708 8.579195 -179.046138 -59.267560 179.909185 5.546542 -4.951197 -0.295093 -0.093142 1.120417 -0.000000 0.000000 0.000000 0.000000 0.000000 0.000000 0.000000 6.776227 -1.027712 -4.994427 82.632882 40.850082 17.757748 -178.354255 66.954065 179.797473 -12.032433 15.861247 -1.806386 0.036021 -1.078328 -0.000000 0.000000 0.000000 0.000000 0.000000 0.000000 0.000000 
4.373030 17.159003 -0.354097 -176.062787 -73.428734 -172.894707 2.707102 -0.796370 -7.250173 -0.287537 -1.219100 -4.564482 -6.919991 -0.991171 -2.968306 7.254953 -3.150307 2.648490 -4.343290 -0.420237 2.822481 0.000000 0.000000 0.000000 9.680869 4.411904 -2.742203 -73.809945 -38.002349 7.845897 -179.006945 -59.244846 179.911756 5.481289 -4.810709 -0.284161 -0.095848 1.107100 -0.000000 0.000000 0.000000 0.000000 0.000000 0.000000 0.000000 6.760832 -1.065880 -4.950959 82.844412 40.484875 18.337768 -178.488336 68.114576 179.804635 -11.687795 15.805278 -1.746132 0.030205 -1.064641 -0.000000 0.000000 0.000000 0.000000 0.000000 0.000000 0.000000 
4.378782 17.153331 -0.391759 -176.235360 -72.920164 -172.907521 2.768343 -0.817866 -7.175414 -0.258372 -1.240443 -4.538301 -6.830061 -1.012279 -2.904487 7.094638 -3.352357 2.400416 -4.363517 -0.419356 2.754555 0.000000 0.000000 0.000000 9.649817 4.509230 -2.627376 -73.304178 -36.686127 7.110492 -178.972471 -59.282303 179.914557 5.406565 -4.649290 -0.271838 -0.097847 1.091608 -0.000000 0.000000 0.000000 0.000000 0.000000 0.000000 0.000000 6.772663 -1.099140 -4.896636 83.055013 40.080976 18.936536 -178.626112 69.362618 179.812039 -11.354860 15.730677 -1.686074 0.025442 -1.049330 -0.000000 0.000000 0.000000 0.000000 0.000000 0.000000 0.000000 
4.385802 17.147827 -0.430855 -176.442503 -72.414454 -172.879389 2.811964 -0.845446 -7.100600 -0.232308 -1.266417 -4.511869 -6.742438 -1.038907 -2.838313 6.948303 -3.568197 2.132630 -4.384687 -0.418369 2.681219 0.000000 0.000000 0.000000 9.604044 4.608075 -2.508564 -72.787507 -35.296073 6.383217 -178.944100 -59.395226 179.917507 5.326771 -4.468430 -0.258422 -0.099229 1.073851 -0.000000 0.000000 0.000000 0.000000 0.000000 0.000000 0.000000 6.825659 -1.132318 -4.830380 83.261874 39.643096 19.561171 -178.765923 70.701649 179.819454 -11.062105 15.629375 -1.630112 0.022624 -1.032191 -0.000000 0.000000 0.000000 0.000000 0.000000 0.000000 0.000000 
4.394393 17.142864 -0.471941 -176.738911 -71.921695 -172.752285 2.816642 -0.883338 -7.031132 -0.213483 -1.299438 -4.485675 -6.659748 -1.073605 -2.768438 6.823812 -3.799951 1.843385 -4.407003 -0.417282 2.601958 0.000000 0.000000 0.000000 9.542136 4.708402 -2.385919 -72.253959 -33.838190 5.673940 -178.923241 -59.598358 179.920533 5.246026 -4.273755 -0.244519 -0.100067 1.053903 -0.000000 0.000000 0.000000 0.000000 0.000000 0.000000 0.000000 6.933749 -1.168975 -4.750872 83.462953 39.173908 20.216313 -178.906036 72.134550 179.826732 -10.827173 15.500375 -1.580643 0.022288 -1.013231 -0.000000 0.000000 0.000000 0.000000 0.000000 0.000000 0.000000 
4.405119 17.138637 -0.514674 -177.074553 -71.449026 -172.574476 2.797549 -0.931208 -6.963994 -0.199539 -1.340588 -4.458106 -6.584847 -1.117170 -2.690022 6.723177 -4.052223 1.527365 -4.429650 -0.415980 2.515320 0.000000 0.000000 0.000000 9.444784 4.828342 -2.257816 -71.697290 -32.346015 5.004002 -178.907349 -59.919849 179.923526 5.173130 -4.056701 -0.230026 -0.100960 1.031434 -0.000000 0.000000 0.000000 0.000000 0.000000 0.000000 0.000000 7.102051 -1.213064 -4.659230 83.650434 38.687417 20.908725 -179.044179 73.667387 179.833855 -10.662006 15.312713 -1.536573 0.024723 -0.991711 -0.000000 0.000000 0.000000 0.000000 0.000000 0.000000 0.000000 
4.418219 17.135540 -0.559662 -177.557959 -71.013191 -172.236803 2.716070 -0.995387 -6.905810 -0.197512 -1.392691 -4.430555 -6.519328 -1.172828 -2.605098 6.652899 -4.321913 1.187832 -4.452222 -0.414490 2.422157 0.000000 0.000000 0.000000 9.314833 4.958848 -2.125084 -71.112795 -30.820798 4.380314 -178.898334 -60.371301 179.926490 5.106577 -3.827505 -0.215547 -0.101705 1.006705 -0.000000 0.000000 0.000000 0.000000 0.000000 0.000000 0.000000 7.339831 -1.265971 -4.554137 83.827049 38.179867 21.633640 -179.178311 75.301945 179.840853 -10.556157 15.080921 -1.497499 0.029554 -0.968087 -0.000000 0.000000 0.000000 0.000000 0.000000 0.000000 0.000000 
4.434177 17.133763 -0.606565 -178.196658 -70.624492 -171.739405 2.569408 -1.076749 -6.846708 -0.208085 -1.456022 -4.401461 -6.464411 -1.240895 -2.514929 6.612732 -4.605390 0.827399 -4.473183 -0.412726 2.323112 0.000000 0.000000 0.000000 9.139814 5.103498 -1.986584 -70.497282 -29.286814 3.817395 -178.894932 -60.976392 179.929445 5.045482 -3.586570 -0.200982 -0.102386 0.979717 -0.000000 0.000000 0.000000 0.000000 0.000000 0.000000 0.000000 7.644983 -1.327001 -4.436203 83.988600 37.655867 22.381649 -179.305757 77.041013 179.847861 -10.489498 14.802673 -1.460028 0.036026 -0.942356 -0.000000 0.000000 0.000000 0.000000 0.000000 0.000000 0.000000 
4.453041 17.133199 -0.654687 -178.958710 -70.296396 -171.099731 2.372076 -1.173985 -6.797014 -0.228530 -1.530964 -4.371738 -6.420745 -1.321740 -2.414277 6.598712 -4.903243 0.443055 -4.490159 -0.410498 2.217503 0.000000 0.000000 0.000000 8.900654 5.282378 -1.841716 -69.852427 -27.787688 3.341727 -178.893777 -61.764229 179.932374 4.994378 -3.310577 -0.185327 -0.103583 0.949784 -0.000000 0.000000 0.000000 0.000000 0.000000 0.000000 0.000000 8.006077 -1.399570 -4.308800 84.128944 37.123816 23.145722 -179.423648 78.881831 179.855008 -10.447679 14.448088 -1.419168 0.043635 -0.913979 -0.000000 0.000000 0.000000 0.000000 0.000000 0.000000 0.000000 
4.475355 17.133868 -0.703298 -179.878099 -70.033493 -170.308483 2.116555 -1.285694 -6.732414 -0.260187 -1.614608 -4.339036 -6.386665 -1.412758 -2.312386 6.605336 -5.201654 0.046768 -4.500834 -0.407731 2.108413 0.000000 0.000000 0.000000 8.594896 5.482548 -1.689700 -69.184446 -26.334610 2.956351 -178.896359 -62.750755 179.935437 4.939300 -3.009614 -0.168689 -0.104659 0.917319 -0.000000 0.000000 0.000000 0.000000 0.000000 0.000000 0.000000 8.407255 -1.475476 -4.172594 84.246346 36.577630 23.894749 -179.529316 80.820687 179.862408 -10.387724 14.055942 -1.372425 0.050812 -0.883935 -0.000000 0.000000 0.000000 0.000000 0.000000 0.000000 0.000000 
4.501241 17.135498 -0.751239 179.070809 -69.837671 -169.400193 1.817548 -1.406429 -6.637001 -0.300518 -1.702554 -4.300986 -6.360869 -1.509535 -2.210872 6.624604 -5.493264 -0.356007 -4.502836 -0.404269 1.997212 0.000000 0.000000 0.000000 8.212353 5.711021 -1.529484 -68.502304 -24.965976 2.676950 -178.902074 -63.958100 179.938711 4.873756 -2.664187 -0.149970 -0.105612 0.881913 -0.000000 0.000000 0.000000 0.000000 0.000000 0.000000 0.000000 8.828462 -1.551506 -4.030107 84.331715 36.020735 24.603252 -179.620770 82.850721 179.870110 -10.287179 13.625883 -1.317109 0.056709 -0.852353 -0.000000 0.000000 0.000000 0.000000 0.000000 0.000000 0.000000 
